# xmcd CD database file
#
# Track frame offsets:
#	150
#	17585
#	28138
#
# Disc length: 577 seconds
#
# Revision: 2
# Processed by: cddbd v1.5PL3 Copyright (c) Steve Scherf et al.
# Submitted via: CDex 1.40Release
#
DISCID=1a023f03
DTITLE=ポルノグラフィティ - ラック
DYEAR=2003
DGENRE=J-POP
TTITLE0=ラック
TTITLE1=Theme of "74ers"
TTITLE2=Anotherday for "74ers"
EXTD=YEAR: 2003
EXTT0=
EXTT1=
EXTT2=
PLAYORDER=
